<?xml version="1.0" encoding="UTF-8" standalone="no" ?>
<!DOCTYPE svg PUBLIC "-//W3C//DTD SVG 1.1//EN" "http://www.w3.org/Graphics/SVG/1.1/DTD/svg11.dtd">
<svg xmlns="http://www.w3.org/2000/svg" xmlns:xlink="http://www.w3.org/1999/xlink" version="1.1" width="512" height="512" viewBox="0 0 500 500" xml:space="preserve">
<desc>Created with Fabric.js 4.6.0</desc>
<defs>
</defs>
<g transform="matrix(10.3 0 0 4.13 250 320.18)" id="YDTmOaKKBeYF8H7JqXDze"  >
<path style="stroke: rgb(27,225,104); stroke-width: 0; stroke-dasharray: none; stroke-linecap: butt; stroke-dashoffset: 0; stroke-linejoin: miter; stroke-miterlimit: 4; fill: rgb(60,130,213); fill-rule: nonzero; opacity: 1;" vector-effect="non-scaling-stroke"  transform=" translate(0, 0)" d="M -12.7551 -12.7551 L 12.7551 -12.7551 L 12.7551 12.7551 L -12.7551 12.7551 z" stroke-linecap="round" />
</g>
<g transform="matrix(4.13 0 0 4.13 118.66 290.96)" id="bYAqLp-7tAk8FhlT_cOAA"  >
<path style="stroke: rgb(194,22,222); stroke-width: 0; stroke-dasharray: none; stroke-linecap: butt; stroke-dashoffset: 0; stroke-linejoin: miter; stroke-miterlimit: 4; fill: rgb(60,130,213); fill-rule: nonzero; opacity: 1;" vector-effect="non-scaling-stroke"  transform=" translate(0, 0)" d="M 0 -19.82554 C 10.9437 -19.82554 19.82554 -10.9437 19.82554 0 C 19.82554 10.9437 10.9437 19.82554 0 19.82554 C -10.9437 19.82554 -19.82554 10.9437 -19.82554 0 C -19.82554 -10.9437 -10.9437 -19.82554 0 -19.82554 z" stroke-linecap="round" />
</g>
<g transform="matrix(4.13 0 0 4.13 381.34 290.96)" id="UQ2_HRqdwRyIMZYjpSf1b"  >
<path style="stroke: rgb(194,22,222); stroke-width: 0; stroke-dasharray: none; stroke-linecap: butt; stroke-dashoffset: 0; stroke-linejoin: miter; stroke-miterlimit: 4; fill: rgb(7,57,116); fill-rule: nonzero; opacity: 1;" vector-effect="non-scaling-stroke"  transform=" translate(0, 0)" d="M 0 -19.82554 C 10.9437 -19.82554 19.82554 -10.9437 19.82554 0 C 19.82554 10.9437 10.9437 19.82554 0 19.82554 C -10.9437 19.82554 -19.82554 10.9437 -19.82554 0 C -19.82554 -10.9437 -10.9437 -19.82554 0 -19.82554 z" stroke-linecap="round" />
</g>
<g transform="matrix(4.13 0 0 4.13 192.9 238.25)" id="lRG2zjpzaKR6AH76CzSUC"  >
<path style="stroke: rgb(194,22,222); stroke-width: 0; stroke-dasharray: none; stroke-linecap: butt; stroke-dashoffset: 0; stroke-linejoin: miter; stroke-miterlimit: 4; fill: rgb(21,104,201); fill-rule: nonzero; opacity: 1;" vector-effect="non-scaling-stroke"  transform=" translate(0, 0)" d="M 0 -19.82554 C 10.9437 -19.82554 19.82554 -10.9437 19.82554 0 C 19.82554 10.9437 10.9437 19.82554 0 19.82554 C -10.9437 19.82554 -19.82554 10.9437 -19.82554 0 C -19.82554 -10.9437 -10.9437 -19.82554 0 -19.82554 z" stroke-linecap="round" />
</g>
<g transform="matrix(4.13 0 0 4.13 299.42 209.04)" id="hc1pcujRgiX89x2zAUgqR"  >
<path style="stroke: rgb(194,22,222); stroke-width: 0; stroke-dasharray: none; stroke-linecap: butt; stroke-dashoffset: 0; stroke-linejoin: miter; stroke-miterlimit: 4; fill: rgb(21,85,161); fill-rule: nonzero; opacity: 1;" vector-effect="non-scaling-stroke"  transform=" translate(0, 0)" d="M 0 -19.82554 C 10.9437 -19.82554 19.82554 -10.9437 19.82554 0 C 19.82554 10.9437 10.9437 19.82554 0 19.82554 C -10.9437 19.82554 -19.82554 10.9437 -19.82554 0 C -19.82554 -10.9437 -10.9437 -19.82554 0 -19.82554 z" stroke-linecap="round" />
</g>
</svg>